solid Pin_Long_Default_sldprt
   facet normal 4.244047e-02 -1.284050e-18 9.990990e-01
      outer loop
         vertex 1.696119e+00 1.700000e+02 1.992795e+01
         vertex 7.347881e-15 1.700000e+02 2.000000e+01
         vertex 2.449294e-15 6.303260e-313 2.000000e+01
      endloop
   endfacet
   facet normal -4.244047e-02 1.222931e-18 9.990990e-01
      outer loop
         vertex 2.449294e-15 6.303260e-313 2.000000e+01
         vertex 7.347881e-15 1.700000e+02 2.000000e+01
         vertex -1.696119e+00 6.303260e-313 1.992795e+01
      endloop
   endfacet
   facet normal -4.244047e-02 0.000000e+00 9.990990e-01
      outer loop
         vertex 7.347881e-15 1.700000e+02 2.000000e+01
         vertex -1.696119e+00 1.700000e+02 1.992795e+01
         vertex -1.696119e+00 6.303260e-313 1.992795e+01
      endloop
   endfacet
   facet normal -1.690013e-01 0.000000e+00 9.856158e-01
      outer loop
         vertex -1.696119e+00 6.303260e-313 1.992795e+01
         vertex -1.696119e+00 1.700000e+02 1.992795e+01
         vertex -5.039561e+00 1.700000e+02 1.935466e+01
      endloop
   endfacet
   facet normal -1.690013e-01 0.000000e+00 9.856158e-01
      outer loop
         vertex -1.696119e+00 6.303260e-313 1.992795e+01
         vertex -5.039561e+00 1.700000e+02 1.935466e+01
         vertex -5.039561e+00 6.303260e-313 1.935466e+01
      endloop
   endfacet
   facet normal -3.331398e-01 0.000000e+00 9.428774e-01
      outer loop
         vertex -5.039561e+00 6.303260e-313 1.935466e+01
         vertex -5.039561e+00 1.700000e+02 1.935466e+01
         vertex -8.238025e+00 1.700000e+02 1.822457e+01
      endloop
   endfacet
   facet normal -3.331398e-01 0.000000e+00 9.428774e-01
      outer loop
         vertex -5.039561e+00 6.303260e-313 1.935466e+01
         vertex -8.238025e+00 1.700000e+02 1.822457e+01
         vertex -8.238025e+00 6.303260e-313 1.822457e+01
      endloop
   endfacet
   facet normal -4.876946e-01 0.000000e+00 8.730143e-01
      outer loop
         vertex -8.238025e+00 6.303260e-313 1.822457e+01
         vertex -8.238025e+00 1.700000e+02 1.822457e+01
         vertex -1.119950e+01 1.700000e+02 1.657019e+01
      endloop
   endfacet
   facet normal -4.876946e-01 0.000000e+00 8.730143e-01
      outer loop
         vertex -8.238025e+00 6.303260e-313 1.822457e+01
         vertex -1.119950e+01 1.700000e+02 1.657019e+01
         vertex -1.119950e+01 6.303260e-313 1.657019e+01
      endloop
   endfacet
   facet normal -6.282201e-01 0.000000e+00 7.780356e-01
      outer loop
         vertex -1.119950e+01 6.303260e-313 1.657019e+01
         vertex -1.119950e+01 1.700000e+02 1.657019e+01
         vertex -1.383878e+01 1.700000e+02 1.443912e+01
      endloop
   endfacet
   facet normal -6.282201e-01 0.000000e+00 7.780356e-01
      outer loop
         vertex -1.119950e+01 6.303260e-313 1.657019e+01
         vertex -1.383878e+01 1.700000e+02 1.443912e+01
         vertex -1.383878e+01 6.303260e-313 1.443912e+01
      endloop
   endfacet
   facet normal -7.506724e-01 0.000000e+00 6.606746e-01
      outer loop
         vertex -1.383878e+01 6.303260e-313 1.443912e+01
         vertex -1.383878e+01 1.700000e+02 1.443912e+01
         vertex -1.607994e+01 1.700000e+02 1.189266e+01
      endloop
   endfacet
   facet normal -7.506724e-01 0.000000e+00 6.606746e-01
      outer loop
         vertex -1.383878e+01 6.303260e-313 1.443912e+01
         vertex -1.607994e+01 1.700000e+02 1.189266e+01
         vertex -1.607994e+01 6.303260e-313 1.189266e+01
      endloop
   endfacet
   facet normal -8.515291e-01 0.000000e+00 5.243074e-01
      outer loop
         vertex -1.607994e+01 6.303260e-313 1.189266e+01
         vertex -1.607994e+01 1.700000e+02 1.189266e+01
         vertex -1.785852e+01 1.700000e+02 9.004075e+00
      endloop
   endfacet
   facet normal -8.515291e-01 0.000000e+00 5.243074e-01
      outer loop
         vertex -1.607994e+01 6.303260e-313 1.189266e+01
         vertex -1.785852e+01 1.700000e+02 9.004075e+00
         vertex -1.785852e+01 6.303260e-313 9.004075e+00
      endloop
   endfacet
   facet normal -9.278890e-01 0.000000e+00 3.728566e-01
      outer loop
         vertex -1.785852e+01 6.303260e-313 9.004075e+00
         vertex -1.785852e+01 1.700000e+02 9.004075e+00
         vertex -1.912333e+01 1.700000e+02 5.856455e+00
      endloop
   endfacet
   facet normal -9.278890e-01 0.000000e+00 3.728566e-01
      outer loop
         vertex -1.785852e+01 6.303260e-313 9.004075e+00
         vertex -1.912333e+01 1.700000e+02 5.856455e+00
         vertex -1.912333e+01 6.303260e-313 5.856455e+00
      endloop
   endfacet
   facet normal -9.775552e-01 0.000000e+00 2.106794e-01
      outer loop
         vertex -1.912333e+01 6.303260e-313 5.856455e+00
         vertex -1.912333e+01 1.700000e+02 5.856455e+00
         vertex -1.983801e+01 1.700000e+02 2.540356e+00
      endloop
   endfacet
   facet normal -9.775552e-01 0.000000e+00 2.106794e-01
      outer loop
         vertex -1.912333e+01 6.303260e-313 5.856455e+00
         vertex -1.983801e+01 1.700000e+02 2.540356e+00
         vertex -1.983801e+01 6.303260e-313 2.540356e+00
      endloop
   endfacet
   facet normal -9.990990e-01 0.000000e+00 4.244085e-02
      outer loop
         vertex -1.983801e+01 6.303260e-313 2.540356e+00
         vertex -1.983801e+01 1.700000e+02 2.540356e+00
         vertex -1.998198e+01 1.700000e+02 -8.488240e-01
      endloop
   endfacet
   facet normal -9.990990e-01 0.000000e+00 4.244085e-02
      outer loop
         vertex -1.983801e+01 6.303260e-313 2.540356e+00
         vertex -1.998198e+01 1.700000e+02 -8.488240e-01
         vertex -1.998198e+01 6.303260e-313 -8.488240e-01
      endloop
   endfacet
   facet normal -9.919004e-01 0.000000e+00 -1.270178e-01
      outer loop
         vertex -1.998198e+01 6.303260e-313 -8.488240e-01
         vertex -1.998198e+01 1.700000e+02 -8.488240e-01
         vertex -1.955110e+01 1.700000e+02 -4.213586e+00
      endloop
   endfacet
   facet normal -9.919004e-01 0.000000e+00 -1.270178e-01
      outer loop
         vertex -1.998198e+01 6.303260e-313 -8.488240e-01
         vertex -1.955110e+01 1.700000e+02 -4.213586e+00
         vertex -1.955110e+01 6.303260e-313 -4.213586e+00
      endloop
   endfacet
   facet normal -9.561669e-01 0.000000e+00 -2.928223e-01
      outer loop
         vertex -1.955110e+01 6.303260e-313 -4.213586e+00
         vertex -1.955110e+01 1.700000e+02 -4.213586e+00
         vertex -1.855778e+01 1.700000e+02 -7.457130e+00
      endloop
   endfacet
   facet normal -9.561669e-01 0.000000e+00 -2.928223e-01
      outer loop
         vertex -1.955110e+01 6.303260e-313 -4.213586e+00
         vertex -1.855778e+01 1.700000e+02 -7.457130e+00
         vertex -1.855778e+01 6.303260e-313 -7.457130e+00
      endloop
   endfacet
   facet normal -8.929256e-01 0.000000e+00 -4.502042e-01
      outer loop
         vertex -1.855778e+01 6.303260e-313 -7.457130e+00
         vertex -1.855778e+01 1.700000e+02 -7.457130e+00
         vertex -1.703058e+01 1.700000e+02 -1.048615e+01
      endloop
   endfacet
   facet normal -8.929256e-01 0.000000e+00 -4.502042e-01
      outer loop
         vertex -1.855778e+01 6.303260e-313 -7.457130e+00
         vertex -1.703058e+01 1.700000e+02 -1.048615e+01
         vertex -1.703058e+01 6.303260e-313 -1.048615e+01
      endloop
   endfacet
   facet normal -8.039973e-01 0.000000e+00 -5.946329e-01
      outer loop
         vertex -1.703058e+01 6.303260e-313 -1.048615e+01
         vertex -1.703058e+01 1.700000e+02 -1.048615e+01
         vertex -1.501345e+01 1.700000e+02 -1.321349e+01
      endloop
   endfacet
   facet normal -8.039973e-01 0.000000e+00 -5.946329e-01
      outer loop
         vertex -1.703058e+01 6.303260e-313 -1.048615e+01
         vertex -1.501345e+01 1.700000e+02 -1.321349e+01
         vertex -1.501345e+01 6.303260e-313 -1.321349e+01
      endloop
   endfacet
   facet normal -6.919389e-01 0.000000e+00 -7.219560e-01
      outer loop
         vertex -1.501345e+01 6.303260e-313 -1.321349e+01
         vertex -1.501345e+01 1.700000e+02 -1.321349e+01
         vertex -1.256440e+01 1.700000e+02 -1.556072e+01
      endloop
   endfacet
   facet normal -6.919389e-01 0.000000e+00 -7.219560e-01
      outer loop
         vertex -1.501345e+01 6.303260e-313 -1.321349e+01
         vertex -1.256440e+01 1.700000e+02 -1.556072e+01
         vertex -1.256440e+01 6.303260e-313 -1.556072e+01
      endloop
   endfacet
   facet normal -5.599748e-01 0.000000e+00 -8.285097e-01
      outer loop
         vertex -1.256440e+01 6.303260e-313 -1.556072e+01
         vertex -1.256440e+01 1.700000e+02 -1.556072e+01
         vertex -9.753899e+00 1.700000e+02 -1.746028e+01
      endloop
   endfacet
   facet normal -5.599748e-01 0.000000e+00 -8.285097e-01
      outer loop
         vertex -1.256440e+01 6.303260e-313 -1.556072e+01
         vertex -9.753899e+00 1.700000e+02 -1.746028e+01
         vertex -9.753899e+00 6.303260e-313 -1.746028e+01
      endloop
   endfacet
   facet normal -4.119009e-01 0.000000e+00 -9.112287e-01
      outer loop
         vertex -9.753899e+00 6.303260e-313 -1.746028e+01
         vertex -9.753899e+00 1.700000e+02 -1.746028e+01
         vertex -6.662796e+00 1.700000e+02 -1.885755e+01
      endloop
   endfacet
   facet normal -4.119009e-01 0.000000e+00 -9.112287e-01
      outer loop
         vertex -9.753899e+00 6.303260e-313 -1.746028e+01
         vertex -6.662796e+00 1.700000e+02 -1.885755e+01
         vertex -6.662796e+00 6.303260e-313 -1.885755e+01
      endloop
   endfacet
   facet normal -2.519782e-01 0.000000e+00 -9.677329e-01
      outer loop
         vertex -6.662796e+00 6.303260e-313 -1.885755e+01
         vertex -6.662796e+00 1.700000e+02 -1.885755e+01
         vertex -3.380016e+00 1.700000e+02 -1.971232e+01
      endloop
   endfacet
   facet normal -2.519782e-01 0.000000e+00 -9.677329e-01
      outer loop
         vertex -6.662796e+00 6.303260e-313 -1.885755e+01
         vertex -3.380016e+00 1.700000e+02 -1.971232e+01
         vertex -3.380016e+00 6.303260e-313 -1.971232e+01
      endloop
   endfacet
   facet normal -8.480593e-02 0.000000e+00 -9.963975e-01
      outer loop
         vertex -3.380016e+00 6.303260e-313 -1.971232e+01
         vertex -3.380016e+00 1.700000e+02 -1.971232e+01
         vertex 0.000000e+00 1.700000e+02 -2.000000e+01
      endloop
   endfacet
   facet normal -8.480593e-02 0.000000e+00 -9.963975e-01
      outer loop
         vertex -3.380016e+00 6.303260e-313 -1.971232e+01
         vertex 0.000000e+00 1.700000e+02 -2.000000e+01
         vertex 0.000000e+00 6.303260e-313 -2.000000e+01
      endloop
   endfacet
   facet normal 8.480593e-02 0.000000e+00 -9.963975e-01
      outer loop
         vertex 0.000000e+00 6.303260e-313 -2.000000e+01
         vertex 0.000000e+00 1.700000e+02 -2.000000e+01
         vertex 3.380016e+00 1.700000e+02 -1.971232e+01
      endloop
   endfacet
   facet normal 8.480593e-02 0.000000e+00 -9.963975e-01
      outer loop
         vertex 0.000000e+00 6.303260e-313 -2.000000e+01
         vertex 3.380016e+00 1.700000e+02 -1.971232e+01
         vertex 3.380016e+00 6.303260e-313 -1.971232e+01
      endloop
   endfacet
   facet normal 2.519782e-01 0.000000e+00 -9.677329e-01
      outer loop
         vertex 3.380016e+00 6.303260e-313 -1.971232e+01
         vertex 3.380016e+00 1.700000e+02 -1.971232e+01
         vertex 6.662796e+00 1.700000e+02 -1.885755e+01
      endloop
   endfacet
   facet normal 2.519782e-01 0.000000e+00 -9.677329e-01
      outer loop
         vertex 3.380016e+00 6.303260e-313 -1.971232e+01
         vertex 6.662796e+00 1.700000e+02 -1.885755e+01
         vertex 6.662796e+00 6.303260e-313 -1.885755e+01
      endloop
   endfacet
   facet normal 4.119009e-01 0.000000e+00 -9.112287e-01
      outer loop
         vertex 6.662796e+00 6.303260e-313 -1.885755e+01
         vertex 6.662796e+00 1.700000e+02 -1.885755e+01
         vertex 9.753899e+00 1.700000e+02 -1.746028e+01
      endloop
   endfacet
   facet normal 4.119009e-01 0.000000e+00 -9.112287e-01
      outer loop
         vertex 6.662796e+00 6.303260e-313 -1.885755e+01
         vertex 9.753899e+00 1.700000e+02 -1.746028e+01
         vertex 9.753899e+00 6.303260e-313 -1.746028e+01
      endloop
   endfacet
   facet normal 5.599748e-01 0.000000e+00 -8.285097e-01
      outer loop
         vertex 9.753899e+00 6.303260e-313 -1.746028e+01
         vertex 9.753899e+00 1.700000e+02 -1.746028e+01
         vertex 1.256440e+01 1.700000e+02 -1.556072e+01
      endloop
   endfacet
   facet normal 5.599748e-01 0.000000e+00 -8.285097e-01
      outer loop
         vertex 9.753899e+00 6.303260e-313 -1.746028e+01
         vertex 1.256440e+01 1.700000e+02 -1.556072e+01
         vertex 1.256440e+01 6.303260e-313 -1.556072e+01
      endloop
   endfacet
   facet normal 6.919389e-01 0.000000e+00 -7.219560e-01
      outer loop
         vertex 1.256440e+01 6.303260e-313 -1.556072e+01
         vertex 1.256440e+01 1.700000e+02 -1.556072e+01
         vertex 1.501345e+01 1.700000e+02 -1.321349e+01
      endloop
   endfacet
   facet normal 6.919389e-01 0.000000e+00 -7.219560e-01
      outer loop
         vertex 1.256440e+01 6.303260e-313 -1.556072e+01
         vertex 1.501345e+01 1.700000e+02 -1.321349e+01
         vertex 1.501345e+01 6.303260e-313 -1.321349e+01
      endloop
   endfacet
   facet normal 8.039973e-01 0.000000e+00 -5.946329e-01
      outer loop
         vertex 1.501345e+01 6.303260e-313 -1.321349e+01
         vertex 1.501345e+01 1.700000e+02 -1.321349e+01
         vertex 1.703058e+01 1.700000e+02 -1.048615e+01
      endloop
   endfacet
   facet normal 8.039973e-01 0.000000e+00 -5.946329e-01
      outer loop
         vertex 1.501345e+01 6.303260e-313 -1.321349e+01
         vertex 1.703058e+01 1.700000e+02 -1.048615e+01
         vertex 1.703058e+01 6.303260e-313 -1.048615e+01
      endloop
   endfacet
   facet normal 8.929256e-01 0.000000e+00 -4.502042e-01
      outer loop
         vertex 1.703058e+01 6.303260e-313 -1.048615e+01
         vertex 1.703058e+01 1.700000e+02 -1.048615e+01
         vertex 1.855778e+01 1.700000e+02 -7.457130e+00
      endloop
   endfacet
   facet normal 8.929256e-01 0.000000e+00 -4.502042e-01
      outer loop
         vertex 1.703058e+01 6.303260e-313 -1.048615e+01
         vertex 1.855778e+01 1.700000e+02 -7.457130e+00
         vertex 1.855778e+01 6.303260e-313 -7.457130e+00
      endloop
   endfacet
   facet normal 9.561669e-01 0.000000e+00 -2.928223e-01
      outer loop
         vertex 1.855778e+01 6.303260e-313 -7.457130e+00
         vertex 1.855778e+01 1.700000e+02 -7.457130e+00
         vertex 1.955110e+01 1.700000e+02 -4.213586e+00
      endloop
   endfacet
   facet normal 9.561669e-01 0.000000e+00 -2.928223e-01
      outer loop
         vertex 1.855778e+01 6.303260e-313 -7.457130e+00
         vertex 1.955110e+01 1.700000e+02 -4.213586e+00
         vertex 1.955110e+01 6.303260e-313 -4.213586e+00
      endloop
   endfacet
   facet normal 9.919004e-01 0.000000e+00 -1.270178e-01
      outer loop
         vertex 1.955110e+01 6.303260e-313 -4.213586e+00
         vertex 1.955110e+01 1.700000e+02 -4.213586e+00
         vertex 1.998198e+01 1.700000e+02 -8.488240e-01
      endloop
   endfacet
   facet normal 9.919004e-01 0.000000e+00 -1.270178e-01
      outer loop
         vertex 1.955110e+01 6.303260e-313 -4.213586e+00
         vertex 1.998198e+01 1.700000e+02 -8.488240e-01
         vertex 1.998198e+01 6.303260e-313 -8.488240e-01
      endloop
   endfacet
   facet normal 9.990990e-01 -0.000000e+00 4.244085e-02
      outer loop
         vertex 1.998198e+01 6.303260e-313 -8.488240e-01
         vertex 1.998198e+01 1.700000e+02 -8.488240e-01
         vertex 1.983801e+01 1.700000e+02 2.540356e+00
      endloop
   endfacet
   facet normal 9.990990e-01 0.000000e+00 4.244085e-02
      outer loop
         vertex 1.998198e+01 6.303260e-313 -8.488240e-01
         vertex 1.983801e+01 1.700000e+02 2.540356e+00
         vertex 1.983801e+01 6.303260e-313 2.540356e+00
      endloop
   endfacet
   facet normal 9.775552e-01 -0.000000e+00 2.106794e-01
      outer loop
         vertex 1.983801e+01 6.303260e-313 2.540356e+00
         vertex 1.983801e+01 1.700000e+02 2.540356e+00
         vertex 1.912333e+01 1.700000e+02 5.856455e+00
      endloop
   endfacet
   facet normal 9.775552e-01 0.000000e+00 2.106794e-01
      outer loop
         vertex 1.983801e+01 6.303260e-313 2.540356e+00
         vertex 1.912333e+01 1.700000e+02 5.856455e+00
         vertex 1.912333e+01 6.303260e-313 5.856455e+00
      endloop
   endfacet
   facet normal 9.278890e-01 -0.000000e+00 3.728566e-01
      outer loop
         vertex 1.912333e+01 6.303260e-313 5.856455e+00
         vertex 1.912333e+01 1.700000e+02 5.856455e+00
         vertex 1.785852e+01 1.700000e+02 9.004075e+00
      endloop
   endfacet
   facet normal 9.278890e-01 0.000000e+00 3.728566e-01
      outer loop
         vertex 1.912333e+01 6.303260e-313 5.856455e+00
         vertex 1.785852e+01 1.700000e+02 9.004075e+00
         vertex 1.785852e+01 6.303260e-313 9.004075e+00
      endloop
   endfacet
   facet normal 8.515291e-01 -0.000000e+00 5.243074e-01
      outer loop
         vertex 1.785852e+01 6.303260e-313 9.004075e+00
         vertex 1.785852e+01 1.700000e+02 9.004075e+00
         vertex 1.607994e+01 1.700000e+02 1.189266e+01
      endloop
   endfacet
   facet normal 8.515291e-01 0.000000e+00 5.243074e-01
      outer loop
         vertex 1.785852e+01 6.303260e-313 9.004075e+00
         vertex 1.607994e+01 1.700000e+02 1.189266e+01
         vertex 1.607994e+01 6.303260e-313 1.189266e+01
      endloop
   endfacet
   facet normal 7.506724e-01 -0.000000e+00 6.606746e-01
      outer loop
         vertex 1.607994e+01 6.303260e-313 1.189266e+01
         vertex 1.607994e+01 1.700000e+02 1.189266e+01
         vertex 1.383878e+01 1.700000e+02 1.443912e+01
      endloop
   endfacet
   facet normal 7.506724e-01 0.000000e+00 6.606746e-01
      outer loop
         vertex 1.607994e+01 6.303260e-313 1.189266e+01
         vertex 1.383878e+01 1.700000e+02 1.443912e+01
         vertex 1.383878e+01 6.303260e-313 1.443912e+01
      endloop
   endfacet
   facet normal 6.282201e-01 -0.000000e+00 7.780356e-01
      outer loop
         vertex 1.383878e+01 6.303260e-313 1.443912e+01
         vertex 1.383878e+01 1.700000e+02 1.443912e+01
         vertex 1.119950e+01 1.700000e+02 1.657019e+01
      endloop
   endfacet
   facet normal 6.282201e-01 0.000000e+00 7.780356e-01
      outer loop
         vertex 1.383878e+01 6.303260e-313 1.443912e+01
         vertex 1.119950e+01 1.700000e+02 1.657019e+01
         vertex 1.119950e+01 6.303260e-313 1.657019e+01
      endloop
   endfacet
   facet normal 4.876946e-01 -0.000000e+00 8.730143e-01
      outer loop
         vertex 1.119950e+01 6.303260e-313 1.657019e+01
         vertex 1.119950e+01 1.700000e+02 1.657019e+01
         vertex 8.238025e+00 1.700000e+02 1.822457e+01
      endloop
   endfacet
   facet normal 4.876946e-01 0.000000e+00 8.730143e-01
      outer loop
         vertex 1.119950e+01 6.303260e-313 1.657019e+01
         vertex 8.238025e+00 1.700000e+02 1.822457e+01
         vertex 8.238025e+00 6.303260e-313 1.822457e+01
      endloop
   endfacet
   facet normal 3.331398e-01 -0.000000e+00 9.428774e-01
      outer loop
         vertex 8.238025e+00 6.303260e-313 1.822457e+01
         vertex 8.238025e+00 1.700000e+02 1.822457e+01
         vertex 5.039561e+00 1.700000e+02 1.935466e+01
      endloop
   endfacet
   facet normal 3.331398e-01 0.000000e+00 9.428774e-01
      outer loop
         vertex 8.238025e+00 6.303260e-313 1.822457e+01
         vertex 5.039561e+00 1.700000e+02 1.935466e+01
         vertex 5.039561e+00 6.303260e-313 1.935466e+01
      endloop
   endfacet
   facet normal 1.690013e-01 -0.000000e+00 9.856158e-01
      outer loop
         vertex 5.039561e+00 6.303260e-313 1.935466e+01
         vertex 5.039561e+00 1.700000e+02 1.935466e+01
         vertex 1.696119e+00 1.700000e+02 1.992795e+01
      endloop
   endfacet
   facet normal 1.690013e-01 0.000000e+00 9.856158e-01
      outer loop
         vertex 5.039561e+00 6.303260e-313 1.935466e+01
         vertex 1.696119e+00 1.700000e+02 1.992795e+01
         vertex 1.696119e+00 6.303260e-313 1.992795e+01
      endloop
   endfacet
   facet normal 4.244047e-02 -0.000000e+00 9.990990e-01
      outer loop
         vertex 1.696119e+00 6.303260e-313 1.992795e+01
         vertex 1.696119e+00 1.700000e+02 1.992795e+01
         vertex 2.449294e-15 6.303260e-313 2.000000e+01
      endloop
   endfacet
   facet normal 0.000000e+00 1.000000e+00 0.000000e+00
      outer loop
         vertex 2.449294e-15 1.700000e+02 2.000000e+01
         vertex 1.696119e+00 1.700000e+02 1.992795e+01
         vertex 0.000000e+00 1.700000e+02 4.347914e-312
      endloop
   endfacet
   facet normal 0.000000e+00 1.000000e+00 0.000000e+00
      outer loop
         vertex 2.449294e-15 1.700000e+02 2.000000e+01
         vertex 0.000000e+00 1.700000e+02 4.347914e-312
         vertex -1.696119e+00 1.700000e+02 1.992795e+01
      endloop
   endfacet
   facet normal -0.000000e+00 1.000000e+00 0.000000e+00
      outer loop
         vertex -1.119950e+01 1.700000e+02 1.657019e+01
         vertex -8.238025e+00 1.700000e+02 1.822457e+01
         vertex 0.000000e+00 1.700000e+02 4.347914e-312
      endloop
   endfacet
   facet normal 0.000000e+00 1.000000e+00 0.000000e+00
      outer loop
         vertex 0.000000e+00 1.700000e+02 4.347914e-312
         vertex -8.238025e+00 1.700000e+02 1.822457e+01
         vertex -5.039561e+00 1.700000e+02 1.935466e+01
      endloop
   endfacet
   facet normal 0.000000e+00 1.000000e+00 0.000000e+00
      outer loop
         vertex 0.000000e+00 1.700000e+02 4.347914e-312
         vertex -5.039561e+00 1.700000e+02 1.935466e+01
         vertex -1.696119e+00 1.700000e+02 1.992795e+01
      endloop
   endfacet
   facet normal -0.000000e+00 1.000000e+00 0.000000e+00
      outer loop
         vertex -1.785852e+01 1.700000e+02 9.004075e+00
         vertex -1.607994e+01 1.700000e+02 1.189266e+01
         vertex 0.000000e+00 1.700000e+02 4.347914e-312
      endloop
   endfacet
   facet normal 0.000000e+00 1.000000e+00 0.000000e+00
      outer loop
         vertex 0.000000e+00 1.700000e+02 4.347914e-312
         vertex -1.607994e+01 1.700000e+02 1.189266e+01
         vertex -1.383878e+01 1.700000e+02 1.443912e+01
      endloop
   endfacet
   facet normal 0.000000e+00 1.000000e+00 0.000000e+00
      outer loop
         vertex 0.000000e+00 1.700000e+02 4.347914e-312
         vertex -1.383878e+01 1.700000e+02 1.443912e+01
         vertex -1.119950e+01 1.700000e+02 1.657019e+01
      endloop
   endfacet
   facet normal 0.000000e+00 1.000000e+00 0.000000e+00
      outer loop
         vertex -1.998198e+01 1.700000e+02 -8.488240e-01
         vertex -1.983801e+01 1.700000e+02 2.540356e+00
         vertex 0.000000e+00 1.700000e+02 4.347914e-312
      endloop
   endfacet
   facet normal 0.000000e+00 1.000000e+00 0.000000e+00
      outer loop
         vertex 0.000000e+00 1.700000e+02 4.347914e-312
         vertex -1.983801e+01 1.700000e+02 2.540356e+00
         vertex -1.912333e+01 1.700000e+02 5.856455e+00
      endloop
   endfacet
   facet normal 0.000000e+00 1.000000e+00 0.000000e+00
      outer loop
         vertex 0.000000e+00 1.700000e+02 4.347914e-312
         vertex -1.912333e+01 1.700000e+02 5.856455e+00
         vertex -1.785852e+01 1.700000e+02 9.004075e+00
      endloop
   endfacet
   facet normal 0.000000e+00 1.000000e+00 -0.000000e+00
      outer loop
         vertex -1.703058e+01 1.700000e+02 -1.048615e+01
         vertex -1.855778e+01 1.700000e+02 -7.457130e+00
         vertex 0.000000e+00 1.700000e+02 4.347914e-312
      endloop
   endfacet
   facet normal 0.000000e+00 1.000000e+00 0.000000e+00
      outer loop
         vertex 0.000000e+00 1.700000e+02 4.347914e-312
         vertex -1.855778e+01 1.700000e+02 -7.457130e+00
         vertex -1.955110e+01 1.700000e+02 -4.213586e+00
      endloop
   endfacet
   facet normal 0.000000e+00 1.000000e+00 0.000000e+00
      outer loop
         vertex 0.000000e+00 1.700000e+02 4.347914e-312
         vertex -1.955110e+01 1.700000e+02 -4.213586e+00
         vertex -1.998198e+01 1.700000e+02 -8.488240e-01
      endloop
   endfacet
   facet normal 0.000000e+00 1.000000e+00 -0.000000e+00
      outer loop
         vertex -9.753899e+00 1.700000e+02 -1.746028e+01
         vertex -1.256440e+01 1.700000e+02 -1.556072e+01
         vertex 0.000000e+00 1.700000e+02 4.347914e-312
      endloop
   endfacet
   facet normal 0.000000e+00 1.000000e+00 0.000000e+00
      outer loop
         vertex 0.000000e+00 1.700000e+02 4.347914e-312
         vertex -1.256440e+01 1.700000e+02 -1.556072e+01
         vertex -1.501345e+01 1.700000e+02 -1.321349e+01
      endloop
   endfacet
   facet normal 0.000000e+00 1.000000e+00 0.000000e+00
      outer loop
         vertex 0.000000e+00 1.700000e+02 4.347914e-312
         vertex -1.501345e+01 1.700000e+02 -1.321349e+01
         vertex -1.703058e+01 1.700000e+02 -1.048615e+01
      endloop
   endfacet
   facet normal 0.000000e+00 1.000000e+00 -0.000000e+00
      outer loop
         vertex 0.000000e+00 1.700000e+02 -2.000000e+01
         vertex -3.380016e+00 1.700000e+02 -1.971232e+01
         vertex 0.000000e+00 1.700000e+02 4.347914e-312
      endloop
   endfacet
   facet normal 0.000000e+00 1.000000e+00 0.000000e+00
      outer loop
         vertex 0.000000e+00 1.700000e+02 4.347914e-312
         vertex -3.380016e+00 1.700000e+02 -1.971232e+01
         vertex -6.662796e+00 1.700000e+02 -1.885755e+01
      endloop
   endfacet
   facet normal 0.000000e+00 1.000000e+00 0.000000e+00
      outer loop
         vertex 0.000000e+00 1.700000e+02 4.347914e-312
         vertex -6.662796e+00 1.700000e+02 -1.885755e+01
         vertex -9.753899e+00 1.700000e+02 -1.746028e+01
      endloop
   endfacet
   facet normal 0.000000e+00 1.000000e+00 0.000000e+00
      outer loop
         vertex 9.753899e+00 1.700000e+02 -1.746028e+01
         vertex 6.662796e+00 1.700000e+02 -1.885755e+01
         vertex 0.000000e+00 1.700000e+02 4.347914e-312
      endloop
   endfacet
   facet normal 0.000000e+00 1.000000e+00 0.000000e+00
      outer loop
         vertex 0.000000e+00 1.700000e+02 4.347914e-312
         vertex 6.662796e+00 1.700000e+02 -1.885755e+01
         vertex 3.380016e+00 1.700000e+02 -1.971232e+01
      endloop
   endfacet
   facet normal 0.000000e+00 1.000000e+00 0.000000e+00
      outer loop
         vertex 0.000000e+00 1.700000e+02 4.347914e-312
         vertex 3.380016e+00 1.700000e+02 -1.971232e+01
         vertex 0.000000e+00 1.700000e+02 -2.000000e+01
      endloop
   endfacet
   facet normal 0.000000e+00 1.000000e+00 0.000000e+00
      outer loop
         vertex 1.703058e+01 1.700000e+02 -1.048615e+01
         vertex 1.501345e+01 1.700000e+02 -1.321349e+01
         vertex 0.000000e+00 1.700000e+02 4.347914e-312
      endloop
   endfacet
   facet normal 0.000000e+00 1.000000e+00 0.000000e+00
      outer loop
         vertex 0.000000e+00 1.700000e+02 4.347914e-312
         vertex 1.501345e+01 1.700000e+02 -1.321349e+01
         vertex 1.256440e+01 1.700000e+02 -1.556072e+01
      endloop
   endfacet
   facet normal 0.000000e+00 1.000000e+00 0.000000e+00
      outer loop
         vertex 0.000000e+00 1.700000e+02 4.347914e-312
         vertex 1.256440e+01 1.700000e+02 -1.556072e+01
         vertex 9.753899e+00 1.700000e+02 -1.746028e+01
      endloop
   endfacet
   facet normal 0.000000e+00 1.000000e+00 0.000000e+00
      outer loop
         vertex 1.998198e+01 1.700000e+02 -8.488240e-01
         vertex 1.955110e+01 1.700000e+02 -4.213586e+00
         vertex 0.000000e+00 1.700000e+02 4.347914e-312
      endloop
   endfacet
   facet normal 0.000000e+00 1.000000e+00 0.000000e+00
      outer loop
         vertex 0.000000e+00 1.700000e+02 4.347914e-312
         vertex 1.955110e+01 1.700000e+02 -4.213586e+00
         vertex 1.855778e+01 1.700000e+02 -7.457130e+00
      endloop
   endfacet
   facet normal 0.000000e+00 1.000000e+00 0.000000e+00
      outer loop
         vertex 0.000000e+00 1.700000e+02 4.347914e-312
         vertex 1.855778e+01 1.700000e+02 -7.457130e+00
         vertex 1.703058e+01 1.700000e+02 -1.048615e+01
      endloop
   endfacet
   facet normal 0.000000e+00 1.000000e+00 0.000000e+00
      outer loop
         vertex 1.785852e+01 1.700000e+02 9.004075e+00
         vertex 1.912333e+01 1.700000e+02 5.856455e+00
         vertex 0.000000e+00 1.700000e+02 4.347914e-312
      endloop
   endfacet
   facet normal 0.000000e+00 1.000000e+00 0.000000e+00
      outer loop
         vertex 0.000000e+00 1.700000e+02 4.347914e-312
         vertex 1.912333e+01 1.700000e+02 5.856455e+00
         vertex 1.983801e+01 1.700000e+02 2.540356e+00
      endloop
   endfacet
   facet normal -0.000000e+00 1.000000e+00 0.000000e+00
      outer loop
         vertex 0.000000e+00 1.700000e+02 4.347914e-312
         vertex 1.983801e+01 1.700000e+02 2.540356e+00
         vertex 1.998198e+01 1.700000e+02 -8.488240e-01
      endloop
   endfacet
   facet normal 0.000000e+00 1.000000e+00 0.000000e+00
      outer loop
         vertex 1.119950e+01 1.700000e+02 1.657019e+01
         vertex 1.383878e+01 1.700000e+02 1.443912e+01
         vertex 0.000000e+00 1.700000e+02 4.347914e-312
      endloop
   endfacet
   facet normal 0.000000e+00 1.000000e+00 0.000000e+00
      outer loop
         vertex 0.000000e+00 1.700000e+02 4.347914e-312
         vertex 1.383878e+01 1.700000e+02 1.443912e+01
         vertex 1.607994e+01 1.700000e+02 1.189266e+01
      endloop
   endfacet
   facet normal 0.000000e+00 1.000000e+00 0.000000e+00
      outer loop
         vertex 0.000000e+00 1.700000e+02 4.347914e-312
         vertex 1.607994e+01 1.700000e+02 1.189266e+01
         vertex 1.785852e+01 1.700000e+02 9.004075e+00
      endloop
   endfacet
   facet normal 0.000000e+00 1.000000e+00 0.000000e+00
      outer loop
         vertex 1.696119e+00 1.700000e+02 1.992795e+01
         vertex 5.039561e+00 1.700000e+02 1.935466e+01
         vertex 0.000000e+00 1.700000e+02 4.347914e-312
      endloop
   endfacet
   facet normal 0.000000e+00 1.000000e+00 0.000000e+00
      outer loop
         vertex 0.000000e+00 1.700000e+02 4.347914e-312
         vertex 5.039561e+00 1.700000e+02 1.935466e+01
         vertex 8.238025e+00 1.700000e+02 1.822457e+01
      endloop
   endfacet
   facet normal 0.000000e+00 1.000000e+00 0.000000e+00
      outer loop
         vertex 0.000000e+00 1.700000e+02 4.347914e-312
         vertex 8.238025e+00 1.700000e+02 1.822457e+01
         vertex 1.119950e+01 1.700000e+02 1.657019e+01
      endloop
   endfacet
   facet normal 0.000000e+00 -1.000000e+00 0.000000e+00
      outer loop
         vertex 7.347881e-15 6.303260e-313 2.000000e+01
         vertex -1.696119e+00 6.303260e-313 1.992795e+01
         vertex 0.000000e+00 6.303260e-313 4.347914e-312
      endloop
   endfacet
   facet normal 0.000000e+00 -1.000000e+00 -0.000000e+00
      outer loop
         vertex 7.347881e-15 6.303260e-313 2.000000e+01
         vertex 0.000000e+00 6.303260e-313 4.347914e-312
         vertex 1.696119e+00 6.303260e-313 1.992795e+01
      endloop
   endfacet
   facet normal -0.000000e+00 -1.000000e+00 0.000000e+00
      outer loop
         vertex 1.119950e+01 6.303260e-313 1.657019e+01
         vertex 8.238025e+00 6.303260e-313 1.822457e+01
         vertex 0.000000e+00 6.303260e-313 4.347914e-312
      endloop
   endfacet
   facet normal 0.000000e+00 -1.000000e+00 0.000000e+00
      outer loop
         vertex 0.000000e+00 6.303260e-313 4.347914e-312
         vertex 8.238025e+00 6.303260e-313 1.822457e+01
         vertex 5.039561e+00 6.303260e-313 1.935466e+01
      endloop
   endfacet
   facet normal 0.000000e+00 -1.000000e+00 0.000000e+00
      outer loop
         vertex 0.000000e+00 6.303260e-313 4.347914e-312
         vertex 5.039561e+00 6.303260e-313 1.935466e+01
         vertex 1.696119e+00 6.303260e-313 1.992795e+01
      endloop
   endfacet
   facet normal -0.000000e+00 -1.000000e+00 0.000000e+00
      outer loop
         vertex 1.785852e+01 6.303260e-313 9.004075e+00
         vertex 1.607994e+01 6.303260e-313 1.189266e+01
         vertex 0.000000e+00 6.303260e-313 4.347914e-312
      endloop
   endfacet
   facet normal 0.000000e+00 -1.000000e+00 0.000000e+00
      outer loop
         vertex 0.000000e+00 6.303260e-313 4.347914e-312
         vertex 1.607994e+01 6.303260e-313 1.189266e+01
         vertex 1.383878e+01 6.303260e-313 1.443912e+01
      endloop
   endfacet
   facet normal 0.000000e+00 -1.000000e+00 0.000000e+00
      outer loop
         vertex 0.000000e+00 6.303260e-313 4.347914e-312
         vertex 1.383878e+01 6.303260e-313 1.443912e+01
         vertex 1.119950e+01 6.303260e-313 1.657019e+01
      endloop
   endfacet
   facet normal 0.000000e+00 -1.000000e+00 0.000000e+00
      outer loop
         vertex 1.998198e+01 6.303260e-313 -8.488240e-01
         vertex 1.983801e+01 6.303260e-313 2.540356e+00
         vertex 0.000000e+00 6.303260e-313 4.347914e-312
      endloop
   endfacet
   facet normal 0.000000e+00 -1.000000e+00 0.000000e+00
      outer loop
         vertex 0.000000e+00 6.303260e-313 4.347914e-312
         vertex 1.983801e+01 6.303260e-313 2.540356e+00
         vertex 1.912333e+01 6.303260e-313 5.856455e+00
      endloop
   endfacet
   facet normal 0.000000e+00 -1.000000e+00 0.000000e+00
      outer loop
         vertex 0.000000e+00 6.303260e-313 4.347914e-312
         vertex 1.912333e+01 6.303260e-313 5.856455e+00
         vertex 1.785852e+01 6.303260e-313 9.004075e+00
      endloop
   endfacet
   facet normal 0.000000e+00 -1.000000e+00 0.000000e+00
      outer loop
         vertex 1.703058e+01 6.303260e-313 -1.048615e+01
         vertex 1.855778e+01 6.303260e-313 -7.457130e+00
         vertex 0.000000e+00 6.303260e-313 4.347914e-312
      endloop
   endfacet
   facet normal 0.000000e+00 -1.000000e+00 0.000000e+00
      outer loop
         vertex 0.000000e+00 6.303260e-313 4.347914e-312
         vertex 1.855778e+01 6.303260e-313 -7.457130e+00
         vertex 1.955110e+01 6.303260e-313 -4.213586e+00
      endloop
   endfacet
   facet normal 0.000000e+00 -1.000000e+00 0.000000e+00
      outer loop
         vertex 0.000000e+00 6.303260e-313 4.347914e-312
         vertex 1.955110e+01 6.303260e-313 -4.213586e+00
         vertex 1.998198e+01 6.303260e-313 -8.488240e-01
      endloop
   endfacet
   facet normal 0.000000e+00 -1.000000e+00 0.000000e+00
      outer loop
         vertex 9.753899e+00 6.303260e-313 -1.746028e+01
         vertex 1.256440e+01 6.303260e-313 -1.556072e+01
         vertex 0.000000e+00 6.303260e-313 4.347914e-312
      endloop
   endfacet
   facet normal 0.000000e+00 -1.000000e+00 0.000000e+00
      outer loop
         vertex 0.000000e+00 6.303260e-313 4.347914e-312
         vertex 1.256440e+01 6.303260e-313 -1.556072e+01
         vertex 1.501345e+01 6.303260e-313 -1.321349e+01
      endloop
   endfacet
   facet normal 0.000000e+00 -1.000000e+00 0.000000e+00
      outer loop
         vertex 0.000000e+00 6.303260e-313 4.347914e-312
         vertex 1.501345e+01 6.303260e-313 -1.321349e+01
         vertex 1.703058e+01 6.303260e-313 -1.048615e+01
      endloop
   endfacet
   facet normal 0.000000e+00 -1.000000e+00 0.000000e+00
      outer loop
         vertex 0.000000e+00 6.303260e-313 -2.000000e+01
         vertex 3.380016e+00 6.303260e-313 -1.971232e+01
         vertex 0.000000e+00 6.303260e-313 4.347914e-312
      endloop
   endfacet
   facet normal 0.000000e+00 -1.000000e+00 0.000000e+00
      outer loop
         vertex 0.000000e+00 6.303260e-313 4.347914e-312
         vertex 3.380016e+00 6.303260e-313 -1.971232e+01
         vertex 6.662796e+00 6.303260e-313 -1.885755e+01
      endloop
   endfacet
   facet normal 0.000000e+00 -1.000000e+00 0.000000e+00
      outer loop
         vertex 0.000000e+00 6.303260e-313 4.347914e-312
         vertex 6.662796e+00 6.303260e-313 -1.885755e+01
         vertex 9.753899e+00 6.303260e-313 -1.746028e+01
      endloop
   endfacet
   facet normal 0.000000e+00 -1.000000e+00 0.000000e+00
      outer loop
         vertex -9.753899e+00 6.303260e-313 -1.746028e+01
         vertex -6.662796e+00 6.303260e-313 -1.885755e+01
         vertex 0.000000e+00 6.303260e-313 4.347914e-312
      endloop
   endfacet
   facet normal 0.000000e+00 -1.000000e+00 0.000000e+00
      outer loop
         vertex 0.000000e+00 6.303260e-313 4.347914e-312
         vertex -6.662796e+00 6.303260e-313 -1.885755e+01
         vertex -3.380016e+00 6.303260e-313 -1.971232e+01
      endloop
   endfacet
   facet normal 0.000000e+00 -1.000000e+00 -0.000000e+00
      outer loop
         vertex 0.000000e+00 6.303260e-313 4.347914e-312
         vertex -3.380016e+00 6.303260e-313 -1.971232e+01
         vertex 0.000000e+00 6.303260e-313 -2.000000e+01
      endloop
   endfacet
   facet normal 0.000000e+00 -1.000000e+00 0.000000e+00
      outer loop
         vertex -1.703058e+01 6.303260e-313 -1.048615e+01
         vertex -1.501345e+01 6.303260e-313 -1.321349e+01
         vertex 0.000000e+00 6.303260e-313 4.347914e-312
      endloop
   endfacet
   facet normal 0.000000e+00 -1.000000e+00 0.000000e+00
      outer loop
         vertex 0.000000e+00 6.303260e-313 4.347914e-312
         vertex -1.501345e+01 6.303260e-313 -1.321349e+01
         vertex -1.256440e+01 6.303260e-313 -1.556072e+01
      endloop
   endfacet
   facet normal 0.000000e+00 -1.000000e+00 0.000000e+00
      outer loop
         vertex 0.000000e+00 6.303260e-313 4.347914e-312
         vertex -1.256440e+01 6.303260e-313 -1.556072e+01
         vertex -9.753899e+00 6.303260e-313 -1.746028e+01
      endloop
   endfacet
   facet normal 0.000000e+00 -1.000000e+00 0.000000e+00
      outer loop
         vertex -1.998198e+01 6.303260e-313 -8.488240e-01
         vertex -1.955110e+01 6.303260e-313 -4.213586e+00
         vertex 0.000000e+00 6.303260e-313 4.347914e-312
      endloop
   endfacet
   facet normal 0.000000e+00 -1.000000e+00 0.000000e+00
      outer loop
         vertex 0.000000e+00 6.303260e-313 4.347914e-312
         vertex -1.955110e+01 6.303260e-313 -4.213586e+00
         vertex -1.855778e+01 6.303260e-313 -7.457130e+00
      endloop
   endfacet
   facet normal 0.000000e+00 -1.000000e+00 0.000000e+00
      outer loop
         vertex 0.000000e+00 6.303260e-313 4.347914e-312
         vertex -1.855778e+01 6.303260e-313 -7.457130e+00
         vertex -1.703058e+01 6.303260e-313 -1.048615e+01
      endloop
   endfacet
   facet normal 0.000000e+00 -1.000000e+00 -0.000000e+00
      outer loop
         vertex -1.785852e+01 6.303260e-313 9.004075e+00
         vertex -1.912333e+01 6.303260e-313 5.856455e+00
         vertex 0.000000e+00 6.303260e-313 4.347914e-312
      endloop
   endfacet
   facet normal 0.000000e+00 -1.000000e+00 0.000000e+00
      outer loop
         vertex 0.000000e+00 6.303260e-313 4.347914e-312
         vertex -1.912333e+01 6.303260e-313 5.856455e+00
         vertex -1.983801e+01 6.303260e-313 2.540356e+00
      endloop
   endfacet
   facet normal -0.000000e+00 -1.000000e+00 0.000000e+00
      outer loop
         vertex 0.000000e+00 6.303260e-313 4.347914e-312
         vertex -1.983801e+01 6.303260e-313 2.540356e+00
         vertex -1.998198e+01 6.303260e-313 -8.488240e-01
      endloop
   endfacet
   facet normal 0.000000e+00 -1.000000e+00 -0.000000e+00
      outer loop
         vertex -1.119950e+01 6.303260e-313 1.657019e+01
         vertex -1.383878e+01 6.303260e-313 1.443912e+01
         vertex 0.000000e+00 6.303260e-313 4.347914e-312
      endloop
   endfacet
   facet normal 0.000000e+00 -1.000000e+00 0.000000e+00
      outer loop
         vertex 0.000000e+00 6.303260e-313 4.347914e-312
         vertex -1.383878e+01 6.303260e-313 1.443912e+01
         vertex -1.607994e+01 6.303260e-313 1.189266e+01
      endloop
   endfacet
   facet normal 0.000000e+00 -1.000000e+00 0.000000e+00
      outer loop
         vertex 0.000000e+00 6.303260e-313 4.347914e-312
         vertex -1.607994e+01 6.303260e-313 1.189266e+01
         vertex -1.785852e+01 6.303260e-313 9.004075e+00
      endloop
   endfacet
   facet normal 0.000000e+00 -1.000000e+00 -0.000000e+00
      outer loop
         vertex -1.696119e+00 6.303260e-313 1.992795e+01
         vertex -5.039561e+00 6.303260e-313 1.935466e+01
         vertex 0.000000e+00 6.303260e-313 4.347914e-312
      endloop
   endfacet
   facet normal 0.000000e+00 -1.000000e+00 0.000000e+00
      outer loop
         vertex 0.000000e+00 6.303260e-313 4.347914e-312
         vertex -5.039561e+00 6.303260e-313 1.935466e+01
         vertex -8.238025e+00 6.303260e-313 1.822457e+01
      endloop
   endfacet
   facet normal 0.000000e+00 -1.000000e+00 0.000000e+00
      outer loop
         vertex 0.000000e+00 6.303260e-313 4.347914e-312
         vertex -8.238025e+00 6.303260e-313 1.822457e+01
         vertex -1.119950e+01 6.303260e-313 1.657019e+01
      endloop
   endfacet
endsolid